<mxfile host="app.diagrams.net" modified="2020-09-17T12:37:21.904Z" agent="5.0 (Windows NT 10.0; Win64; x64) AppleWebKit/537.36 (KHTML, like Gecko) Chrome/85.0.4183.102 Safari/537.36" etag="gOB82NVUFbIhvUGfZzsn" version="13.7.2" type="github">
  <diagram id="GtZ8i9lgS3yH1XoOPjZW" name="Page-1">
    <mxGraphModel dx="1102" dy="614" grid="1" gridSize="10" guides="1" tooltips="1" connect="1" arrows="1" fold="1" page="1" pageScale="1" pageWidth="827" pageHeight="1169" math="0" shadow="0">
      <root>
        <mxCell id="0" />
        <mxCell id="1" parent="0" />
        <mxCell id="GZnLw8ghzT_1h8dibQ5w-32" style="edgeStyle=orthogonalEdgeStyle;rounded=0;orthogonalLoop=1;jettySize=auto;html=1;endArrow=none;endFill=0;" edge="1" parent="1" source="GZnLw8ghzT_1h8dibQ5w-1" target="GZnLw8ghzT_1h8dibQ5w-2">
          <mxGeometry relative="1" as="geometry" />
        </mxCell>
        <mxCell id="GZnLw8ghzT_1h8dibQ5w-1" value="" style="ellipse;whiteSpace=wrap;html=1;aspect=fixed;" vertex="1" parent="1">
          <mxGeometry x="530" y="190" width="30" height="30" as="geometry" />
        </mxCell>
        <mxCell id="GZnLw8ghzT_1h8dibQ5w-26" style="edgeStyle=orthogonalEdgeStyle;rounded=0;orthogonalLoop=1;jettySize=auto;html=1;endArrow=none;endFill=0;" edge="1" parent="1" source="GZnLw8ghzT_1h8dibQ5w-2" target="GZnLw8ghzT_1h8dibQ5w-9">
          <mxGeometry relative="1" as="geometry" />
        </mxCell>
        <mxCell id="GZnLw8ghzT_1h8dibQ5w-2" value="" style="ellipse;whiteSpace=wrap;html=1;aspect=fixed;" vertex="1" parent="1">
          <mxGeometry x="530" y="350" width="30" height="30" as="geometry" />
        </mxCell>
        <mxCell id="GZnLw8ghzT_1h8dibQ5w-4" value="" style="ellipse;whiteSpace=wrap;html=1;aspect=fixed;" vertex="1" parent="1">
          <mxGeometry x="160" y="490" width="30" height="30" as="geometry" />
        </mxCell>
        <mxCell id="GZnLw8ghzT_1h8dibQ5w-29" style="edgeStyle=orthogonalEdgeStyle;rounded=0;orthogonalLoop=1;jettySize=auto;html=1;endArrow=none;endFill=0;" edge="1" parent="1" source="GZnLw8ghzT_1h8dibQ5w-6" target="GZnLw8ghzT_1h8dibQ5w-9">
          <mxGeometry relative="1" as="geometry" />
        </mxCell>
        <mxCell id="GZnLw8ghzT_1h8dibQ5w-37" style="edgeStyle=orthogonalEdgeStyle;rounded=0;orthogonalLoop=1;jettySize=auto;html=1;endArrow=none;endFill=0;" edge="1" parent="1" source="GZnLw8ghzT_1h8dibQ5w-6" target="GZnLw8ghzT_1h8dibQ5w-4">
          <mxGeometry relative="1" as="geometry" />
        </mxCell>
        <mxCell id="GZnLw8ghzT_1h8dibQ5w-6" value="" style="ellipse;whiteSpace=wrap;html=1;aspect=fixed;" vertex="1" parent="1">
          <mxGeometry x="160" y="350" width="30" height="30" as="geometry" />
        </mxCell>
        <mxCell id="GZnLw8ghzT_1h8dibQ5w-7" value="" style="ellipse;whiteSpace=wrap;html=1;aspect=fixed;" vertex="1" parent="1">
          <mxGeometry x="530" y="490" width="30" height="30" as="geometry" />
        </mxCell>
        <mxCell id="GZnLw8ghzT_1h8dibQ5w-8" value="" style="ellipse;whiteSpace=wrap;html=1;aspect=fixed;" vertex="1" parent="1">
          <mxGeometry x="160" y="190" width="30" height="30" as="geometry" />
        </mxCell>
        <mxCell id="GZnLw8ghzT_1h8dibQ5w-9" value="" style="ellipse;whiteSpace=wrap;html=1;aspect=fixed;" vertex="1" parent="1">
          <mxGeometry x="340" y="350" width="30" height="30" as="geometry" />
        </mxCell>
        <mxCell id="GZnLw8ghzT_1h8dibQ5w-30" style="edgeStyle=orthogonalEdgeStyle;rounded=0;orthogonalLoop=1;jettySize=auto;html=1;endArrow=none;endFill=0;" edge="1" parent="1" source="GZnLw8ghzT_1h8dibQ5w-11" target="GZnLw8ghzT_1h8dibQ5w-9">
          <mxGeometry relative="1" as="geometry" />
        </mxCell>
        <mxCell id="GZnLw8ghzT_1h8dibQ5w-36" style="edgeStyle=orthogonalEdgeStyle;rounded=0;orthogonalLoop=1;jettySize=auto;html=1;endArrow=none;endFill=0;" edge="1" parent="1" source="GZnLw8ghzT_1h8dibQ5w-11" target="GZnLw8ghzT_1h8dibQ5w-8">
          <mxGeometry relative="1" as="geometry" />
        </mxCell>
        <mxCell id="GZnLw8ghzT_1h8dibQ5w-11" value="" style="ellipse;whiteSpace=wrap;html=1;aspect=fixed;" vertex="1" parent="1">
          <mxGeometry x="340" y="190" width="30" height="30" as="geometry" />
        </mxCell>
        <mxCell id="GZnLw8ghzT_1h8dibQ5w-28" style="edgeStyle=orthogonalEdgeStyle;rounded=0;orthogonalLoop=1;jettySize=auto;html=1;endArrow=none;endFill=0;" edge="1" parent="1" source="GZnLw8ghzT_1h8dibQ5w-13" target="GZnLw8ghzT_1h8dibQ5w-9">
          <mxGeometry relative="1" as="geometry" />
        </mxCell>
        <mxCell id="GZnLw8ghzT_1h8dibQ5w-38" style="edgeStyle=orthogonalEdgeStyle;rounded=0;orthogonalLoop=1;jettySize=auto;html=1;endArrow=none;endFill=0;" edge="1" parent="1" source="GZnLw8ghzT_1h8dibQ5w-13">
          <mxGeometry relative="1" as="geometry">
            <mxPoint x="545" y="515" as="targetPoint" />
          </mxGeometry>
        </mxCell>
        <mxCell id="GZnLw8ghzT_1h8dibQ5w-13" value="" style="ellipse;whiteSpace=wrap;html=1;aspect=fixed;" vertex="1" parent="1">
          <mxGeometry x="340" y="500" width="30" height="30" as="geometry" />
        </mxCell>
        <mxCell id="GZnLw8ghzT_1h8dibQ5w-40" value="" style="endArrow=none;html=1;entryX=0;entryY=1;entryDx=0;entryDy=0;" edge="1" parent="1" source="GZnLw8ghzT_1h8dibQ5w-9" target="GZnLw8ghzT_1h8dibQ5w-1">
          <mxGeometry width="50" height="50" relative="1" as="geometry">
            <mxPoint x="390" y="320" as="sourcePoint" />
            <mxPoint x="440" y="270" as="targetPoint" />
          </mxGeometry>
        </mxCell>
        <mxCell id="GZnLw8ghzT_1h8dibQ5w-41" value="" style="endArrow=none;html=1;" edge="1" parent="1" source="GZnLw8ghzT_1h8dibQ5w-9" target="GZnLw8ghzT_1h8dibQ5w-8">
          <mxGeometry width="50" height="50" relative="1" as="geometry">
            <mxPoint x="390" y="320" as="sourcePoint" />
            <mxPoint x="440" y="270" as="targetPoint" />
          </mxGeometry>
        </mxCell>
        <mxCell id="GZnLw8ghzT_1h8dibQ5w-42" value="" style="endArrow=none;html=1;" edge="1" parent="1" source="GZnLw8ghzT_1h8dibQ5w-4" target="GZnLw8ghzT_1h8dibQ5w-9">
          <mxGeometry width="50" height="50" relative="1" as="geometry">
            <mxPoint x="390" y="320" as="sourcePoint" />
            <mxPoint x="440" y="270" as="targetPoint" />
          </mxGeometry>
        </mxCell>
        <mxCell id="GZnLw8ghzT_1h8dibQ5w-43" value="" style="endArrow=none;html=1;" edge="1" parent="1" source="GZnLw8ghzT_1h8dibQ5w-9">
          <mxGeometry width="50" height="50" relative="1" as="geometry">
            <mxPoint x="390" y="320" as="sourcePoint" />
            <mxPoint x="540" y="500" as="targetPoint" />
          </mxGeometry>
        </mxCell>
        <mxCell id="GZnLw8ghzT_1h8dibQ5w-44" style="edgeStyle=orthogonalEdgeStyle;rounded=0;orthogonalLoop=1;jettySize=auto;html=1;endArrow=none;endFill=0;strokeWidth=3;" edge="1" parent="1" source="GZnLw8ghzT_1h8dibQ5w-45" target="GZnLw8ghzT_1h8dibQ5w-51">
          <mxGeometry relative="1" as="geometry" />
        </mxCell>
        <mxCell id="GZnLw8ghzT_1h8dibQ5w-60" style="edgeStyle=orthogonalEdgeStyle;rounded=0;orthogonalLoop=1;jettySize=auto;html=1;endArrow=none;endFill=0;" edge="1" parent="1" source="GZnLw8ghzT_1h8dibQ5w-45" target="GZnLw8ghzT_1h8dibQ5w-50">
          <mxGeometry relative="1" as="geometry" />
        </mxCell>
        <mxCell id="GZnLw8ghzT_1h8dibQ5w-45" value="" style="ellipse;whiteSpace=wrap;html=1;aspect=fixed;" vertex="1" parent="1">
          <mxGeometry x="220" y="615" width="30" height="30" as="geometry" />
        </mxCell>
        <mxCell id="GZnLw8ghzT_1h8dibQ5w-57" style="edgeStyle=orthogonalEdgeStyle;rounded=0;orthogonalLoop=1;jettySize=auto;html=1;entryX=0;entryY=0.5;entryDx=0;entryDy=0;endArrow=none;endFill=0;strokeWidth=3;" edge="1" parent="1" source="GZnLw8ghzT_1h8dibQ5w-46" target="GZnLw8ghzT_1h8dibQ5w-54">
          <mxGeometry relative="1" as="geometry" />
        </mxCell>
        <mxCell id="GZnLw8ghzT_1h8dibQ5w-46" value="" style="ellipse;whiteSpace=wrap;html=1;aspect=fixed;" vertex="1" parent="1">
          <mxGeometry x="40" y="710" width="30" height="30" as="geometry" />
        </mxCell>
        <mxCell id="GZnLw8ghzT_1h8dibQ5w-47" style="edgeStyle=orthogonalEdgeStyle;rounded=0;orthogonalLoop=1;jettySize=auto;html=1;endArrow=none;endFill=0;strokeWidth=3;" edge="1" parent="1" source="GZnLw8ghzT_1h8dibQ5w-49" target="GZnLw8ghzT_1h8dibQ5w-51">
          <mxGeometry relative="1" as="geometry" />
        </mxCell>
        <mxCell id="GZnLw8ghzT_1h8dibQ5w-48" style="edgeStyle=orthogonalEdgeStyle;rounded=0;orthogonalLoop=1;jettySize=auto;html=1;endArrow=none;endFill=0;strokeWidth=3;" edge="1" parent="1" source="GZnLw8ghzT_1h8dibQ5w-49" target="GZnLw8ghzT_1h8dibQ5w-46">
          <mxGeometry relative="1" as="geometry" />
        </mxCell>
        <mxCell id="GZnLw8ghzT_1h8dibQ5w-49" value="" style="ellipse;whiteSpace=wrap;html=1;aspect=fixed;" vertex="1" parent="1">
          <mxGeometry x="40" y="615" width="30" height="30" as="geometry" />
        </mxCell>
        <mxCell id="GZnLw8ghzT_1h8dibQ5w-50" value="" style="ellipse;whiteSpace=wrap;html=1;aspect=fixed;" vertex="1" parent="1">
          <mxGeometry x="220" y="710" width="30" height="30" as="geometry" />
        </mxCell>
        <mxCell id="GZnLw8ghzT_1h8dibQ5w-51" value="" style="ellipse;whiteSpace=wrap;html=1;aspect=fixed;" vertex="1" parent="1">
          <mxGeometry x="130" y="615" width="30" height="30" as="geometry" />
        </mxCell>
        <mxCell id="GZnLw8ghzT_1h8dibQ5w-54" value="" style="ellipse;whiteSpace=wrap;html=1;aspect=fixed;" vertex="1" parent="1">
          <mxGeometry x="130" y="710" width="30" height="30" as="geometry" />
        </mxCell>
        <mxCell id="GZnLw8ghzT_1h8dibQ5w-56" value="" style="endArrow=none;html=1;" edge="1" parent="1" source="GZnLw8ghzT_1h8dibQ5w-51" target="GZnLw8ghzT_1h8dibQ5w-50">
          <mxGeometry width="50" height="50" relative="1" as="geometry">
            <mxPoint x="270" y="530" as="sourcePoint" />
            <mxPoint x="420" y="710" as="targetPoint" />
          </mxGeometry>
        </mxCell>
        <mxCell id="GZnLw8ghzT_1h8dibQ5w-136" style="edgeStyle=orthogonalEdgeStyle;rounded=0;orthogonalLoop=1;jettySize=auto;html=1;endArrow=none;endFill=0;strokeWidth=3;" edge="1" parent="1" source="GZnLw8ghzT_1h8dibQ5w-138" target="GZnLw8ghzT_1h8dibQ5w-145">
          <mxGeometry relative="1" as="geometry" />
        </mxCell>
        <mxCell id="GZnLw8ghzT_1h8dibQ5w-137" style="edgeStyle=orthogonalEdgeStyle;rounded=0;orthogonalLoop=1;jettySize=auto;html=1;endArrow=none;endFill=0;" edge="1" parent="1" source="GZnLw8ghzT_1h8dibQ5w-138" target="GZnLw8ghzT_1h8dibQ5w-144">
          <mxGeometry relative="1" as="geometry" />
        </mxCell>
        <mxCell id="GZnLw8ghzT_1h8dibQ5w-138" value="" style="ellipse;whiteSpace=wrap;html=1;aspect=fixed;" vertex="1" parent="1">
          <mxGeometry x="220" y="750" width="30" height="30" as="geometry" />
        </mxCell>
        <mxCell id="GZnLw8ghzT_1h8dibQ5w-139" style="edgeStyle=orthogonalEdgeStyle;rounded=0;orthogonalLoop=1;jettySize=auto;html=1;entryX=0;entryY=0.5;entryDx=0;entryDy=0;endArrow=none;endFill=0;strokeWidth=3;" edge="1" parent="1" source="GZnLw8ghzT_1h8dibQ5w-140" target="GZnLw8ghzT_1h8dibQ5w-148">
          <mxGeometry relative="1" as="geometry" />
        </mxCell>
        <mxCell id="GZnLw8ghzT_1h8dibQ5w-140" value="" style="ellipse;whiteSpace=wrap;html=1;aspect=fixed;" vertex="1" parent="1">
          <mxGeometry x="40" y="845" width="30" height="30" as="geometry" />
        </mxCell>
        <mxCell id="GZnLw8ghzT_1h8dibQ5w-141" style="edgeStyle=orthogonalEdgeStyle;rounded=0;orthogonalLoop=1;jettySize=auto;html=1;endArrow=none;endFill=0;strokeWidth=3;" edge="1" parent="1" source="GZnLw8ghzT_1h8dibQ5w-143" target="GZnLw8ghzT_1h8dibQ5w-145">
          <mxGeometry relative="1" as="geometry" />
        </mxCell>
        <mxCell id="GZnLw8ghzT_1h8dibQ5w-143" value="" style="ellipse;whiteSpace=wrap;html=1;aspect=fixed;" vertex="1" parent="1">
          <mxGeometry x="40" y="750" width="30" height="30" as="geometry" />
        </mxCell>
        <mxCell id="GZnLw8ghzT_1h8dibQ5w-144" value="" style="ellipse;whiteSpace=wrap;html=1;aspect=fixed;" vertex="1" parent="1">
          <mxGeometry x="220" y="845" width="30" height="30" as="geometry" />
        </mxCell>
        <mxCell id="GZnLw8ghzT_1h8dibQ5w-145" value="" style="ellipse;whiteSpace=wrap;html=1;aspect=fixed;" vertex="1" parent="1">
          <mxGeometry x="130" y="750" width="30" height="30" as="geometry" />
        </mxCell>
        <mxCell id="GZnLw8ghzT_1h8dibQ5w-146" style="edgeStyle=orthogonalEdgeStyle;rounded=0;orthogonalLoop=1;jettySize=auto;html=1;endArrow=none;endFill=0;" edge="1" parent="1" source="GZnLw8ghzT_1h8dibQ5w-148" target="GZnLw8ghzT_1h8dibQ5w-145">
          <mxGeometry relative="1" as="geometry" />
        </mxCell>
        <mxCell id="GZnLw8ghzT_1h8dibQ5w-147" style="edgeStyle=orthogonalEdgeStyle;rounded=0;orthogonalLoop=1;jettySize=auto;html=1;endArrow=none;endFill=0;strokeWidth=3;" edge="1" parent="1" source="GZnLw8ghzT_1h8dibQ5w-148" target="GZnLw8ghzT_1h8dibQ5w-144">
          <mxGeometry relative="1" as="geometry" />
        </mxCell>
        <mxCell id="GZnLw8ghzT_1h8dibQ5w-148" value="" style="ellipse;whiteSpace=wrap;html=1;aspect=fixed;" vertex="1" parent="1">
          <mxGeometry x="130" y="845" width="30" height="30" as="geometry" />
        </mxCell>
        <mxCell id="GZnLw8ghzT_1h8dibQ5w-149" value="" style="endArrow=none;html=1;entryX=1;entryY=1;entryDx=0;entryDy=0;" edge="1" parent="1" source="GZnLw8ghzT_1h8dibQ5w-148" target="GZnLw8ghzT_1h8dibQ5w-143">
          <mxGeometry width="50" height="50" relative="1" as="geometry">
            <mxPoint x="270" y="665" as="sourcePoint" />
            <mxPoint x="320" y="615" as="targetPoint" />
          </mxGeometry>
        </mxCell>
        <mxCell id="GZnLw8ghzT_1h8dibQ5w-150" value="" style="endArrow=none;html=1;" edge="1" parent="1" source="GZnLw8ghzT_1h8dibQ5w-145" target="GZnLw8ghzT_1h8dibQ5w-144">
          <mxGeometry width="50" height="50" relative="1" as="geometry">
            <mxPoint x="270" y="665" as="sourcePoint" />
            <mxPoint x="420" y="845" as="targetPoint" />
          </mxGeometry>
        </mxCell>
        <mxCell id="GZnLw8ghzT_1h8dibQ5w-151" style="edgeStyle=orthogonalEdgeStyle;rounded=0;orthogonalLoop=1;jettySize=auto;html=1;endArrow=none;endFill=0;strokeWidth=3;" edge="1" parent="1" source="GZnLw8ghzT_1h8dibQ5w-153" target="GZnLw8ghzT_1h8dibQ5w-160">
          <mxGeometry relative="1" as="geometry" />
        </mxCell>
        <mxCell id="GZnLw8ghzT_1h8dibQ5w-152" style="edgeStyle=orthogonalEdgeStyle;rounded=0;orthogonalLoop=1;jettySize=auto;html=1;endArrow=none;endFill=0;" edge="1" parent="1" source="GZnLw8ghzT_1h8dibQ5w-153" target="GZnLw8ghzT_1h8dibQ5w-159">
          <mxGeometry relative="1" as="geometry" />
        </mxCell>
        <mxCell id="GZnLw8ghzT_1h8dibQ5w-153" value="" style="ellipse;whiteSpace=wrap;html=1;aspect=fixed;" vertex="1" parent="1">
          <mxGeometry x="450" y="615" width="30" height="30" as="geometry" />
        </mxCell>
        <mxCell id="GZnLw8ghzT_1h8dibQ5w-155" value="" style="ellipse;whiteSpace=wrap;html=1;aspect=fixed;" vertex="1" parent="1">
          <mxGeometry x="270" y="710" width="30" height="30" as="geometry" />
        </mxCell>
        <mxCell id="GZnLw8ghzT_1h8dibQ5w-156" style="edgeStyle=orthogonalEdgeStyle;rounded=0;orthogonalLoop=1;jettySize=auto;html=1;endArrow=none;endFill=0;strokeWidth=3;" edge="1" parent="1" source="GZnLw8ghzT_1h8dibQ5w-158" target="GZnLw8ghzT_1h8dibQ5w-160">
          <mxGeometry relative="1" as="geometry" />
        </mxCell>
        <mxCell id="GZnLw8ghzT_1h8dibQ5w-157" style="edgeStyle=orthogonalEdgeStyle;rounded=0;orthogonalLoop=1;jettySize=auto;html=1;endArrow=none;endFill=0;strokeWidth=3;" edge="1" parent="1" source="GZnLw8ghzT_1h8dibQ5w-158" target="GZnLw8ghzT_1h8dibQ5w-155">
          <mxGeometry relative="1" as="geometry" />
        </mxCell>
        <mxCell id="GZnLw8ghzT_1h8dibQ5w-158" value="" style="ellipse;whiteSpace=wrap;html=1;aspect=fixed;" vertex="1" parent="1">
          <mxGeometry x="270" y="615" width="30" height="30" as="geometry" />
        </mxCell>
        <mxCell id="GZnLw8ghzT_1h8dibQ5w-159" value="" style="ellipse;whiteSpace=wrap;html=1;aspect=fixed;" vertex="1" parent="1">
          <mxGeometry x="450" y="710" width="30" height="30" as="geometry" />
        </mxCell>
        <mxCell id="GZnLw8ghzT_1h8dibQ5w-160" value="" style="ellipse;whiteSpace=wrap;html=1;aspect=fixed;" vertex="1" parent="1">
          <mxGeometry x="360" y="615" width="30" height="30" as="geometry" />
        </mxCell>
        <mxCell id="GZnLw8ghzT_1h8dibQ5w-161" style="edgeStyle=orthogonalEdgeStyle;rounded=0;orthogonalLoop=1;jettySize=auto;html=1;endArrow=none;endFill=0;" edge="1" parent="1" source="GZnLw8ghzT_1h8dibQ5w-163" target="GZnLw8ghzT_1h8dibQ5w-160">
          <mxGeometry relative="1" as="geometry" />
        </mxCell>
        <mxCell id="GZnLw8ghzT_1h8dibQ5w-162" style="edgeStyle=orthogonalEdgeStyle;rounded=0;orthogonalLoop=1;jettySize=auto;html=1;endArrow=none;endFill=0;strokeWidth=3;" edge="1" parent="1" source="GZnLw8ghzT_1h8dibQ5w-163" target="GZnLw8ghzT_1h8dibQ5w-159">
          <mxGeometry relative="1" as="geometry" />
        </mxCell>
        <mxCell id="GZnLw8ghzT_1h8dibQ5w-163" value="" style="ellipse;whiteSpace=wrap;html=1;aspect=fixed;" vertex="1" parent="1">
          <mxGeometry x="360" y="710" width="30" height="30" as="geometry" />
        </mxCell>
        <mxCell id="GZnLw8ghzT_1h8dibQ5w-164" value="" style="endArrow=none;html=1;entryX=1;entryY=1;entryDx=0;entryDy=0;" edge="1" parent="1" source="GZnLw8ghzT_1h8dibQ5w-163" target="GZnLw8ghzT_1h8dibQ5w-158">
          <mxGeometry width="50" height="50" relative="1" as="geometry">
            <mxPoint x="500" y="530" as="sourcePoint" />
            <mxPoint x="550" y="480" as="targetPoint" />
          </mxGeometry>
        </mxCell>
        <mxCell id="GZnLw8ghzT_1h8dibQ5w-165" value="" style="endArrow=none;html=1;" edge="1" parent="1" source="GZnLw8ghzT_1h8dibQ5w-160" target="GZnLw8ghzT_1h8dibQ5w-159">
          <mxGeometry width="50" height="50" relative="1" as="geometry">
            <mxPoint x="500" y="530" as="sourcePoint" />
            <mxPoint x="650" y="710" as="targetPoint" />
          </mxGeometry>
        </mxCell>
        <mxCell id="GZnLw8ghzT_1h8dibQ5w-166" style="edgeStyle=orthogonalEdgeStyle;rounded=0;orthogonalLoop=1;jettySize=auto;html=1;endArrow=none;endFill=0;strokeWidth=3;" edge="1" parent="1" source="GZnLw8ghzT_1h8dibQ5w-168" target="GZnLw8ghzT_1h8dibQ5w-175">
          <mxGeometry relative="1" as="geometry" />
        </mxCell>
        <mxCell id="GZnLw8ghzT_1h8dibQ5w-167" style="edgeStyle=orthogonalEdgeStyle;rounded=0;orthogonalLoop=1;jettySize=auto;html=1;endArrow=none;endFill=0;" edge="1" parent="1" source="GZnLw8ghzT_1h8dibQ5w-168" target="GZnLw8ghzT_1h8dibQ5w-174">
          <mxGeometry relative="1" as="geometry" />
        </mxCell>
        <mxCell id="GZnLw8ghzT_1h8dibQ5w-168" value="" style="ellipse;whiteSpace=wrap;html=1;aspect=fixed;" vertex="1" parent="1">
          <mxGeometry x="450" y="750" width="30" height="30" as="geometry" />
        </mxCell>
        <mxCell id="GZnLw8ghzT_1h8dibQ5w-169" style="edgeStyle=orthogonalEdgeStyle;rounded=0;orthogonalLoop=1;jettySize=auto;html=1;entryX=0;entryY=0.5;entryDx=0;entryDy=0;endArrow=none;endFill=0;strokeWidth=3;" edge="1" parent="1" source="GZnLw8ghzT_1h8dibQ5w-170" target="GZnLw8ghzT_1h8dibQ5w-178">
          <mxGeometry relative="1" as="geometry" />
        </mxCell>
        <mxCell id="GZnLw8ghzT_1h8dibQ5w-170" value="" style="ellipse;whiteSpace=wrap;html=1;aspect=fixed;" vertex="1" parent="1">
          <mxGeometry x="270" y="845" width="30" height="30" as="geometry" />
        </mxCell>
        <mxCell id="GZnLw8ghzT_1h8dibQ5w-172" style="edgeStyle=orthogonalEdgeStyle;rounded=0;orthogonalLoop=1;jettySize=auto;html=1;endArrow=none;endFill=0;strokeWidth=3;" edge="1" parent="1" source="GZnLw8ghzT_1h8dibQ5w-173" target="GZnLw8ghzT_1h8dibQ5w-170">
          <mxGeometry relative="1" as="geometry" />
        </mxCell>
        <mxCell id="GZnLw8ghzT_1h8dibQ5w-173" value="" style="ellipse;whiteSpace=wrap;html=1;aspect=fixed;" vertex="1" parent="1">
          <mxGeometry x="270" y="750" width="30" height="30" as="geometry" />
        </mxCell>
        <mxCell id="GZnLw8ghzT_1h8dibQ5w-174" value="" style="ellipse;whiteSpace=wrap;html=1;aspect=fixed;" vertex="1" parent="1">
          <mxGeometry x="450" y="845" width="30" height="30" as="geometry" />
        </mxCell>
        <mxCell id="GZnLw8ghzT_1h8dibQ5w-175" value="" style="ellipse;whiteSpace=wrap;html=1;aspect=fixed;" vertex="1" parent="1">
          <mxGeometry x="360" y="750" width="30" height="30" as="geometry" />
        </mxCell>
        <mxCell id="GZnLw8ghzT_1h8dibQ5w-176" style="edgeStyle=orthogonalEdgeStyle;rounded=0;orthogonalLoop=1;jettySize=auto;html=1;endArrow=none;endFill=0;" edge="1" parent="1" source="GZnLw8ghzT_1h8dibQ5w-178" target="GZnLw8ghzT_1h8dibQ5w-175">
          <mxGeometry relative="1" as="geometry" />
        </mxCell>
        <mxCell id="GZnLw8ghzT_1h8dibQ5w-177" style="edgeStyle=orthogonalEdgeStyle;rounded=0;orthogonalLoop=1;jettySize=auto;html=1;endArrow=none;endFill=0;strokeWidth=3;" edge="1" parent="1" source="GZnLw8ghzT_1h8dibQ5w-178" target="GZnLw8ghzT_1h8dibQ5w-174">
          <mxGeometry relative="1" as="geometry" />
        </mxCell>
        <mxCell id="GZnLw8ghzT_1h8dibQ5w-178" value="" style="ellipse;whiteSpace=wrap;html=1;aspect=fixed;" vertex="1" parent="1">
          <mxGeometry x="360" y="845" width="30" height="30" as="geometry" />
        </mxCell>
        <mxCell id="GZnLw8ghzT_1h8dibQ5w-180" value="" style="endArrow=none;html=1;" edge="1" parent="1" source="GZnLw8ghzT_1h8dibQ5w-175" target="GZnLw8ghzT_1h8dibQ5w-174">
          <mxGeometry width="50" height="50" relative="1" as="geometry">
            <mxPoint x="500" y="665" as="sourcePoint" />
            <mxPoint x="650" y="845" as="targetPoint" />
          </mxGeometry>
        </mxCell>
        <mxCell id="GZnLw8ghzT_1h8dibQ5w-249" style="edgeStyle=orthogonalEdgeStyle;rounded=0;orthogonalLoop=1;jettySize=auto;html=1;endArrow=none;endFill=0;" edge="1" parent="1" target="GZnLw8ghzT_1h8dibQ5w-254">
          <mxGeometry relative="1" as="geometry">
            <mxPoint x="235" y="935" as="sourcePoint" />
          </mxGeometry>
        </mxCell>
        <mxCell id="GZnLw8ghzT_1h8dibQ5w-250" style="edgeStyle=orthogonalEdgeStyle;rounded=0;orthogonalLoop=1;jettySize=auto;html=1;entryX=0;entryY=0.5;entryDx=0;entryDy=0;endArrow=none;endFill=0;strokeWidth=3;" edge="1" parent="1" source="GZnLw8ghzT_1h8dibQ5w-251" target="GZnLw8ghzT_1h8dibQ5w-257">
          <mxGeometry relative="1" as="geometry" />
        </mxCell>
        <mxCell id="GZnLw8ghzT_1h8dibQ5w-251" value="" style="ellipse;whiteSpace=wrap;html=1;aspect=fixed;" vertex="1" parent="1">
          <mxGeometry x="40" y="1000" width="30" height="30" as="geometry" />
        </mxCell>
        <mxCell id="GZnLw8ghzT_1h8dibQ5w-252" style="edgeStyle=orthogonalEdgeStyle;rounded=0;orthogonalLoop=1;jettySize=auto;html=1;endArrow=none;endFill=0;strokeWidth=3;" edge="1" parent="1">
          <mxGeometry relative="1" as="geometry">
            <mxPoint x="70" y="920" as="sourcePoint" />
            <mxPoint x="130" y="920" as="targetPoint" />
          </mxGeometry>
        </mxCell>
        <mxCell id="GZnLw8ghzT_1h8dibQ5w-253" style="edgeStyle=orthogonalEdgeStyle;rounded=0;orthogonalLoop=1;jettySize=auto;html=1;endArrow=none;endFill=0;strokeWidth=3;" edge="1" parent="1" target="GZnLw8ghzT_1h8dibQ5w-251">
          <mxGeometry relative="1" as="geometry">
            <mxPoint x="55" y="935" as="sourcePoint" />
          </mxGeometry>
        </mxCell>
        <mxCell id="GZnLw8ghzT_1h8dibQ5w-254" value="" style="ellipse;whiteSpace=wrap;html=1;aspect=fixed;" vertex="1" parent="1">
          <mxGeometry x="220" y="1000" width="30" height="30" as="geometry" />
        </mxCell>
        <mxCell id="GZnLw8ghzT_1h8dibQ5w-256" style="edgeStyle=orthogonalEdgeStyle;rounded=0;orthogonalLoop=1;jettySize=auto;html=1;endArrow=none;endFill=0;strokeWidth=3;" edge="1" parent="1" source="GZnLw8ghzT_1h8dibQ5w-257" target="GZnLw8ghzT_1h8dibQ5w-254">
          <mxGeometry relative="1" as="geometry" />
        </mxCell>
        <mxCell id="GZnLw8ghzT_1h8dibQ5w-257" value="" style="ellipse;whiteSpace=wrap;html=1;aspect=fixed;" vertex="1" parent="1">
          <mxGeometry x="130" y="1000" width="30" height="30" as="geometry" />
        </mxCell>
        <mxCell id="GZnLw8ghzT_1h8dibQ5w-273" value="" style="ellipse;whiteSpace=wrap;html=1;aspect=fixed;" vertex="1" parent="1">
          <mxGeometry x="220" y="905" width="30" height="30" as="geometry" />
        </mxCell>
        <mxCell id="GZnLw8ghzT_1h8dibQ5w-274" value="" style="ellipse;whiteSpace=wrap;html=1;aspect=fixed;" vertex="1" parent="1">
          <mxGeometry x="130" y="905" width="30" height="30" as="geometry" />
        </mxCell>
        <mxCell id="GZnLw8ghzT_1h8dibQ5w-275" value="" style="ellipse;whiteSpace=wrap;html=1;aspect=fixed;" vertex="1" parent="1">
          <mxGeometry x="40" y="905" width="30" height="30" as="geometry" />
        </mxCell>
        <mxCell id="GZnLw8ghzT_1h8dibQ5w-280" value="BASE DE COCYCLES" style="text;html=1;strokeColor=none;fillColor=none;align=center;verticalAlign=middle;whiteSpace=wrap;rounded=0;fontSize=23;" vertex="1" parent="1">
          <mxGeometry x="320" y="970" width="130" height="20" as="geometry" />
        </mxCell>
      </root>
    </mxGraphModel>
  </diagram>
</mxfile>
